<mxfile host="app.diagrams.net" agent="Mozilla/5.0 (Windows NT 10.0; Win64; x64) AppleWebKit/537.36 (KHTML, like Gecko) Chrome/137.0.0.0 Safari/537.36" version="27.1.4">
  <diagram name="Страница — 1" id="UU6X1Q2LLAYiboO9e5UY">
    <mxGraphModel dx="925" dy="552" grid="1" gridSize="10" guides="1" tooltips="1" connect="1" arrows="1" fold="1" page="1" pageScale="1" pageWidth="827" pageHeight="1169" math="0" shadow="0">
      <root>
        <mxCell id="0" />
        <mxCell id="1" parent="0" />
        <mxCell id="QgKklc_-N7JBqiMBvKZP-145" value="" style="rounded=0;whiteSpace=wrap;html=1;" vertex="1" parent="1">
          <mxGeometry x="160" y="320" width="20" height="40" as="geometry" />
        </mxCell>
        <mxCell id="QgKklc_-N7JBqiMBvKZP-146" value="" style="rounded=0;whiteSpace=wrap;html=1;" vertex="1" parent="1">
          <mxGeometry x="190" y="320" width="20" height="40" as="geometry" />
        </mxCell>
        <mxCell id="QgKklc_-N7JBqiMBvKZP-147" value="" style="rounded=0;whiteSpace=wrap;html=1;" vertex="1" parent="1">
          <mxGeometry x="220" y="320" width="20" height="40" as="geometry" />
        </mxCell>
        <mxCell id="QgKklc_-N7JBqiMBvKZP-148" value="" style="rounded=0;whiteSpace=wrap;html=1;" vertex="1" parent="1">
          <mxGeometry x="250" y="320" width="20" height="40" as="geometry" />
        </mxCell>
        <mxCell id="QgKklc_-N7JBqiMBvKZP-149" value="Кодировщик" style="rounded=1;whiteSpace=wrap;html=1;fillColor=#2DAAF0;strokeColor=#000000;" vertex="1" parent="1">
          <mxGeometry x="150" y="220" width="130" height="60" as="geometry" />
        </mxCell>
        <mxCell id="QgKklc_-N7JBqiMBvKZP-150" style="edgeStyle=orthogonalEdgeStyle;rounded=0;orthogonalLoop=1;jettySize=auto;html=1;exitX=0.5;exitY=0;exitDx=0;exitDy=0;entryX=0.849;entryY=1.02;entryDx=0;entryDy=0;entryPerimeter=0;" edge="1" parent="1" source="QgKklc_-N7JBqiMBvKZP-148" target="QgKklc_-N7JBqiMBvKZP-149">
          <mxGeometry relative="1" as="geometry" />
        </mxCell>
        <mxCell id="QgKklc_-N7JBqiMBvKZP-151" style="edgeStyle=orthogonalEdgeStyle;rounded=0;orthogonalLoop=1;jettySize=auto;html=1;exitX=0.5;exitY=0;exitDx=0;exitDy=0;entryX=0.615;entryY=1.024;entryDx=0;entryDy=0;entryPerimeter=0;" edge="1" parent="1" source="QgKklc_-N7JBqiMBvKZP-147" target="QgKklc_-N7JBqiMBvKZP-149">
          <mxGeometry relative="1" as="geometry" />
        </mxCell>
        <mxCell id="QgKklc_-N7JBqiMBvKZP-152" style="edgeStyle=orthogonalEdgeStyle;rounded=0;orthogonalLoop=1;jettySize=auto;html=1;exitX=0.5;exitY=0;exitDx=0;exitDy=0;entryX=0.385;entryY=1.016;entryDx=0;entryDy=0;entryPerimeter=0;" edge="1" parent="1" source="QgKklc_-N7JBqiMBvKZP-146" target="QgKklc_-N7JBqiMBvKZP-149">
          <mxGeometry relative="1" as="geometry" />
        </mxCell>
        <mxCell id="QgKklc_-N7JBqiMBvKZP-153" style="edgeStyle=orthogonalEdgeStyle;rounded=0;orthogonalLoop=1;jettySize=auto;html=1;exitX=0.5;exitY=0;exitDx=0;exitDy=0;entryX=0.152;entryY=1.024;entryDx=0;entryDy=0;entryPerimeter=0;" edge="1" parent="1" source="QgKklc_-N7JBqiMBvKZP-145" target="QgKklc_-N7JBqiMBvKZP-149">
          <mxGeometry relative="1" as="geometry" />
        </mxCell>
        <mxCell id="QgKklc_-N7JBqiMBvKZP-154" value="" style="rounded=0;whiteSpace=wrap;html=1;" vertex="1" parent="1">
          <mxGeometry x="160" y="140" width="20" height="40" as="geometry" />
        </mxCell>
        <mxCell id="QgKklc_-N7JBqiMBvKZP-155" value="" style="rounded=0;whiteSpace=wrap;html=1;" vertex="1" parent="1">
          <mxGeometry x="190" y="140" width="20" height="40" as="geometry" />
        </mxCell>
        <mxCell id="QgKklc_-N7JBqiMBvKZP-156" value="" style="rounded=0;whiteSpace=wrap;html=1;" vertex="1" parent="1">
          <mxGeometry x="220" y="140" width="20" height="40" as="geometry" />
        </mxCell>
        <mxCell id="QgKklc_-N7JBqiMBvKZP-157" value="" style="rounded=0;whiteSpace=wrap;html=1;" vertex="1" parent="1">
          <mxGeometry x="250" y="140" width="20" height="40" as="geometry" />
        </mxCell>
        <mxCell id="QgKklc_-N7JBqiMBvKZP-158" value="" style="endArrow=classic;html=1;rounded=0;entryX=0.5;entryY=1;entryDx=0;entryDy=0;exitX=0.149;exitY=0;exitDx=0;exitDy=0;exitPerimeter=0;" edge="1" parent="1">
          <mxGeometry width="50" height="50" relative="1" as="geometry">
            <mxPoint x="368" y="220" as="sourcePoint" />
            <mxPoint x="368.63" y="180" as="targetPoint" />
          </mxGeometry>
        </mxCell>
        <mxCell id="QgKklc_-N7JBqiMBvKZP-159" value="" style="endArrow=classic;html=1;rounded=0;entryX=0.5;entryY=1;entryDx=0;entryDy=0;exitX=0.149;exitY=0;exitDx=0;exitDy=0;exitPerimeter=0;" edge="1" parent="1">
          <mxGeometry width="50" height="50" relative="1" as="geometry">
            <mxPoint x="398.13" y="220" as="sourcePoint" />
            <mxPoint x="399.13" y="180" as="targetPoint" />
          </mxGeometry>
        </mxCell>
        <mxCell id="QgKklc_-N7JBqiMBvKZP-160" value="" style="endArrow=classic;html=1;rounded=0;entryX=0.5;entryY=1;entryDx=0;entryDy=0;exitX=0.149;exitY=0;exitDx=0;exitDy=0;exitPerimeter=0;" edge="1" parent="1">
          <mxGeometry width="50" height="50" relative="1" as="geometry">
            <mxPoint x="428.13" y="220" as="sourcePoint" />
            <mxPoint x="429.13" y="180" as="targetPoint" />
          </mxGeometry>
        </mxCell>
        <mxCell id="QgKklc_-N7JBqiMBvKZP-161" value="" style="endArrow=classic;html=1;rounded=0;entryX=0.5;entryY=1;entryDx=0;entryDy=0;exitX=0.149;exitY=0;exitDx=0;exitDy=0;exitPerimeter=0;" edge="1" parent="1">
          <mxGeometry width="50" height="50" relative="1" as="geometry">
            <mxPoint x="458.13" y="220" as="sourcePoint" />
            <mxPoint x="459.13" y="180" as="targetPoint" />
          </mxGeometry>
        </mxCell>
        <mxCell id="QgKklc_-N7JBqiMBvKZP-162" value="x&lt;sub&gt;&lt;font style=&quot;font-size: 6px;&quot;&gt;1&lt;/font&gt;&lt;/sub&gt;&amp;nbsp; &amp;nbsp; &amp;nbsp; x&lt;sub&gt;&lt;font style=&quot;font-size: 6px;&quot;&gt;2&lt;/font&gt;&lt;/sub&gt;&amp;nbsp; &amp;nbsp; &amp;nbsp; ...&amp;nbsp; &amp;nbsp; &amp;nbsp; x&lt;sub style=&quot;&quot;&gt;&lt;font style=&quot;font-size: 6px;&quot;&gt;t&lt;/font&gt;&lt;/sub&gt;" style="text;html=1;align=center;verticalAlign=middle;whiteSpace=wrap;rounded=0;" vertex="1" parent="1">
          <mxGeometry x="160" y="370" width="110" height="30" as="geometry" />
        </mxCell>
        <mxCell id="QgKklc_-N7JBqiMBvKZP-163" value="&lt;font style=&quot;font-size: 12px;&quot;&gt;y&lt;/font&gt;&lt;font style=&quot;vertical-align: sub; font-size: 6px;&quot;&gt;1&lt;/font&gt;&amp;nbsp; &amp;nbsp; &amp;nbsp; y&lt;sub&gt;&lt;font style=&quot;font-size: 6px;&quot;&gt;2&lt;/font&gt;&lt;/sub&gt;&amp;nbsp; &amp;nbsp; &amp;nbsp; ...&amp;nbsp; &amp;nbsp; &amp;nbsp; y&lt;sub style=&quot;&quot;&gt;&lt;font style=&quot;font-size: 6px;&quot;&gt;t&lt;/font&gt;&lt;/sub&gt;" style="text;html=1;align=center;verticalAlign=middle;whiteSpace=wrap;rounded=0;" vertex="1" parent="1">
          <mxGeometry x="160" y="100" width="110" height="30" as="geometry" />
        </mxCell>
        <mxCell id="QgKklc_-N7JBqiMBvKZP-164" value="a)" style="text;html=1;align=center;verticalAlign=middle;whiteSpace=wrap;rounded=0;" vertex="1" parent="1">
          <mxGeometry x="90" y="110" width="60" height="30" as="geometry" />
        </mxCell>
        <mxCell id="QgKklc_-N7JBqiMBvKZP-165" value="" style="rounded=0;whiteSpace=wrap;html=1;" vertex="1" parent="1">
          <mxGeometry x="360" y="320" width="20" height="40" as="geometry" />
        </mxCell>
        <mxCell id="QgKklc_-N7JBqiMBvKZP-166" value="" style="rounded=0;whiteSpace=wrap;html=1;" vertex="1" parent="1">
          <mxGeometry x="390" y="320" width="20" height="40" as="geometry" />
        </mxCell>
        <mxCell id="QgKklc_-N7JBqiMBvKZP-167" value="" style="rounded=0;whiteSpace=wrap;html=1;" vertex="1" parent="1">
          <mxGeometry x="420" y="320" width="20" height="40" as="geometry" />
        </mxCell>
        <mxCell id="QgKklc_-N7JBqiMBvKZP-168" value="" style="rounded=0;whiteSpace=wrap;html=1;" vertex="1" parent="1">
          <mxGeometry x="450" y="320" width="20" height="40" as="geometry" />
        </mxCell>
        <mxCell id="QgKklc_-N7JBqiMBvKZP-169" value="Кодировщик" style="rounded=1;whiteSpace=wrap;html=1;fillColor=#2DAAF0;strokeColor=#000000;" vertex="1" parent="1">
          <mxGeometry x="350" y="260" width="130" height="20" as="geometry" />
        </mxCell>
        <mxCell id="QgKklc_-N7JBqiMBvKZP-170" style="edgeStyle=orthogonalEdgeStyle;rounded=0;orthogonalLoop=1;jettySize=auto;html=1;exitX=0.5;exitY=0;exitDx=0;exitDy=0;entryX=0.849;entryY=1.02;entryDx=0;entryDy=0;entryPerimeter=0;" edge="1" parent="1" source="QgKklc_-N7JBqiMBvKZP-168" target="QgKklc_-N7JBqiMBvKZP-169">
          <mxGeometry relative="1" as="geometry" />
        </mxCell>
        <mxCell id="QgKklc_-N7JBqiMBvKZP-171" style="edgeStyle=orthogonalEdgeStyle;rounded=0;orthogonalLoop=1;jettySize=auto;html=1;exitX=0.5;exitY=0;exitDx=0;exitDy=0;entryX=0.615;entryY=1.024;entryDx=0;entryDy=0;entryPerimeter=0;" edge="1" parent="1" source="QgKklc_-N7JBqiMBvKZP-167" target="QgKklc_-N7JBqiMBvKZP-169">
          <mxGeometry relative="1" as="geometry" />
        </mxCell>
        <mxCell id="QgKklc_-N7JBqiMBvKZP-172" style="edgeStyle=orthogonalEdgeStyle;rounded=0;orthogonalLoop=1;jettySize=auto;html=1;exitX=0.5;exitY=0;exitDx=0;exitDy=0;entryX=0.385;entryY=1.016;entryDx=0;entryDy=0;entryPerimeter=0;" edge="1" parent="1" source="QgKklc_-N7JBqiMBvKZP-166" target="QgKklc_-N7JBqiMBvKZP-169">
          <mxGeometry relative="1" as="geometry" />
        </mxCell>
        <mxCell id="QgKklc_-N7JBqiMBvKZP-173" style="edgeStyle=orthogonalEdgeStyle;rounded=0;orthogonalLoop=1;jettySize=auto;html=1;exitX=0.5;exitY=0;exitDx=0;exitDy=0;entryX=0.152;entryY=1.024;entryDx=0;entryDy=0;entryPerimeter=0;" edge="1" parent="1" source="QgKklc_-N7JBqiMBvKZP-165" target="QgKklc_-N7JBqiMBvKZP-169">
          <mxGeometry relative="1" as="geometry" />
        </mxCell>
        <mxCell id="QgKklc_-N7JBqiMBvKZP-174" value="" style="rounded=0;whiteSpace=wrap;html=1;" vertex="1" parent="1">
          <mxGeometry x="360" y="140" width="20" height="40" as="geometry" />
        </mxCell>
        <mxCell id="QgKklc_-N7JBqiMBvKZP-175" value="" style="rounded=0;whiteSpace=wrap;html=1;" vertex="1" parent="1">
          <mxGeometry x="390" y="140" width="20" height="40" as="geometry" />
        </mxCell>
        <mxCell id="QgKklc_-N7JBqiMBvKZP-176" value="" style="rounded=0;whiteSpace=wrap;html=1;" vertex="1" parent="1">
          <mxGeometry x="420" y="140" width="20" height="40" as="geometry" />
        </mxCell>
        <mxCell id="QgKklc_-N7JBqiMBvKZP-177" style="edgeStyle=orthogonalEdgeStyle;rounded=0;orthogonalLoop=1;jettySize=auto;html=1;entryX=1;entryY=0.5;entryDx=0;entryDy=0;" edge="1" parent="1" source="QgKklc_-N7JBqiMBvKZP-178" target="QgKklc_-N7JBqiMBvKZP-191">
          <mxGeometry relative="1" as="geometry">
            <mxPoint x="670" y="350" as="targetPoint" />
          </mxGeometry>
        </mxCell>
        <mxCell id="QgKklc_-N7JBqiMBvKZP-178" value="" style="rounded=0;whiteSpace=wrap;html=1;" vertex="1" parent="1">
          <mxGeometry x="450" y="140" width="20" height="40" as="geometry" />
        </mxCell>
        <mxCell id="QgKklc_-N7JBqiMBvKZP-179" value="x&lt;sub&gt;&lt;font style=&quot;font-size: 6px;&quot;&gt;1&lt;/font&gt;&lt;/sub&gt;&amp;nbsp; &amp;nbsp; &amp;nbsp; x&lt;sub&gt;&lt;font style=&quot;font-size: 6px;&quot;&gt;2&lt;/font&gt;&lt;/sub&gt;&amp;nbsp; &amp;nbsp; &amp;nbsp; ...&amp;nbsp; &amp;nbsp; &amp;nbsp; x&lt;sub style=&quot;&quot;&gt;&lt;font style=&quot;font-size: 6px;&quot;&gt;t&lt;/font&gt;&lt;/sub&gt;" style="text;html=1;align=center;verticalAlign=middle;whiteSpace=wrap;rounded=0;" vertex="1" parent="1">
          <mxGeometry x="360" y="370" width="110" height="30" as="geometry" />
        </mxCell>
        <mxCell id="QgKklc_-N7JBqiMBvKZP-180" value="&lt;font style=&quot;font-size: 12px;&quot;&gt;y&lt;/font&gt;&lt;font style=&quot;vertical-align: sub; font-size: 6px;&quot;&gt;1&lt;/font&gt;&amp;nbsp; &amp;nbsp; &amp;nbsp; y&lt;sub&gt;&lt;font style=&quot;font-size: 6px;&quot;&gt;2&lt;/font&gt;&lt;/sub&gt;&amp;nbsp; &amp;nbsp; &amp;nbsp; ...&amp;nbsp; &amp;nbsp; &amp;nbsp; y&lt;sub style=&quot;&quot;&gt;&lt;font style=&quot;font-size: 6px;&quot;&gt;t&lt;/font&gt;&lt;/sub&gt;" style="text;html=1;align=center;verticalAlign=middle;whiteSpace=wrap;rounded=0;" vertex="1" parent="1">
          <mxGeometry x="360" y="100" width="110" height="30" as="geometry" />
        </mxCell>
        <mxCell id="QgKklc_-N7JBqiMBvKZP-181" value="Joiner" style="rounded=1;whiteSpace=wrap;html=1;fillColor=#E6434D;strokeColor=#000000;" vertex="1" parent="1">
          <mxGeometry x="350" y="210" width="130" height="20" as="geometry" />
        </mxCell>
        <mxCell id="QgKklc_-N7JBqiMBvKZP-182" style="edgeStyle=orthogonalEdgeStyle;rounded=0;orthogonalLoop=1;jettySize=auto;html=1;exitX=0.5;exitY=0;exitDx=0;exitDy=0;entryX=0.5;entryY=1;entryDx=0;entryDy=0;" edge="1" parent="1" source="QgKklc_-N7JBqiMBvKZP-183" target="QgKklc_-N7JBqiMBvKZP-198">
          <mxGeometry relative="1" as="geometry" />
        </mxCell>
        <mxCell id="QgKklc_-N7JBqiMBvKZP-183" value="Предсказатель" style="rounded=1;whiteSpace=wrap;html=1;fillColor=#53D98A;strokeColor=#000000;" vertex="1" parent="1">
          <mxGeometry x="510" y="260" width="130" height="20" as="geometry" />
        </mxCell>
        <mxCell id="QgKklc_-N7JBqiMBvKZP-184" value="" style="rounded=0;whiteSpace=wrap;html=1;" vertex="1" parent="1">
          <mxGeometry x="520" y="200" width="20" height="40" as="geometry" />
        </mxCell>
        <mxCell id="QgKklc_-N7JBqiMBvKZP-185" value="" style="rounded=0;whiteSpace=wrap;html=1;" vertex="1" parent="1">
          <mxGeometry x="550" y="200" width="20" height="40" as="geometry" />
        </mxCell>
        <mxCell id="QgKklc_-N7JBqiMBvKZP-186" value="" style="rounded=0;whiteSpace=wrap;html=1;" vertex="1" parent="1">
          <mxGeometry x="580" y="200" width="20" height="40" as="geometry" />
        </mxCell>
        <mxCell id="QgKklc_-N7JBqiMBvKZP-187" value="" style="rounded=0;whiteSpace=wrap;html=1;" vertex="1" parent="1">
          <mxGeometry x="610" y="200" width="20" height="40" as="geometry" />
        </mxCell>
        <mxCell id="QgKklc_-N7JBqiMBvKZP-188" value="" style="rounded=0;whiteSpace=wrap;html=1;" vertex="1" parent="1">
          <mxGeometry x="520" y="320" width="20" height="40" as="geometry" />
        </mxCell>
        <mxCell id="QgKklc_-N7JBqiMBvKZP-189" value="" style="rounded=0;whiteSpace=wrap;html=1;" vertex="1" parent="1">
          <mxGeometry x="550" y="320" width="20" height="40" as="geometry" />
        </mxCell>
        <mxCell id="QgKklc_-N7JBqiMBvKZP-190" value="" style="rounded=0;whiteSpace=wrap;html=1;" vertex="1" parent="1">
          <mxGeometry x="580" y="320" width="20" height="40" as="geometry" />
        </mxCell>
        <mxCell id="QgKklc_-N7JBqiMBvKZP-191" value="" style="rounded=0;whiteSpace=wrap;html=1;" vertex="1" parent="1">
          <mxGeometry x="610" y="320" width="20" height="40" as="geometry" />
        </mxCell>
        <mxCell id="QgKklc_-N7JBqiMBvKZP-192" value="&lt;font style=&quot;font-size: 12px;&quot;&gt;h&lt;/font&gt;&lt;font style=&quot;font-size: 6px;&quot;&gt;0&lt;/font&gt;&amp;nbsp; &amp;nbsp; &amp;nbsp; h&lt;span style=&quot;font-size: 6px;&quot;&gt;1&lt;/span&gt;&amp;nbsp; &amp;nbsp; &amp;nbsp; ...&amp;nbsp; &amp;nbsp; &amp;nbsp; h&lt;sub style=&quot;&quot;&gt;&lt;font style=&quot;font-size: 6px;&quot;&gt;t-1&lt;/font&gt;&lt;/sub&gt;" style="text;html=1;align=center;verticalAlign=middle;whiteSpace=wrap;rounded=0;" vertex="1" parent="1">
          <mxGeometry x="520" y="370" width="110" height="30" as="geometry" />
        </mxCell>
        <mxCell id="QgKklc_-N7JBqiMBvKZP-193" style="edgeStyle=orthogonalEdgeStyle;rounded=0;orthogonalLoop=1;jettySize=auto;html=1;exitX=0.5;exitY=0;exitDx=0;exitDy=0;entryX=0.154;entryY=1.158;entryDx=0;entryDy=0;entryPerimeter=0;" edge="1" parent="1" source="QgKklc_-N7JBqiMBvKZP-188" target="QgKklc_-N7JBqiMBvKZP-183">
          <mxGeometry relative="1" as="geometry" />
        </mxCell>
        <mxCell id="QgKklc_-N7JBqiMBvKZP-194" style="edgeStyle=orthogonalEdgeStyle;rounded=0;orthogonalLoop=1;jettySize=auto;html=1;exitX=0.5;exitY=0;exitDx=0;exitDy=0;entryX=0.385;entryY=1.108;entryDx=0;entryDy=0;entryPerimeter=0;" edge="1" parent="1" source="QgKklc_-N7JBqiMBvKZP-189" target="QgKklc_-N7JBqiMBvKZP-183">
          <mxGeometry relative="1" as="geometry" />
        </mxCell>
        <mxCell id="QgKklc_-N7JBqiMBvKZP-195" style="edgeStyle=orthogonalEdgeStyle;rounded=0;orthogonalLoop=1;jettySize=auto;html=1;exitX=0.5;exitY=0;exitDx=0;exitDy=0;entryX=0.618;entryY=1.158;entryDx=0;entryDy=0;entryPerimeter=0;" edge="1" parent="1" source="QgKklc_-N7JBqiMBvKZP-190" target="QgKklc_-N7JBqiMBvKZP-183">
          <mxGeometry relative="1" as="geometry" />
        </mxCell>
        <mxCell id="QgKklc_-N7JBqiMBvKZP-196" style="edgeStyle=orthogonalEdgeStyle;rounded=0;orthogonalLoop=1;jettySize=auto;html=1;exitX=0.5;exitY=0;exitDx=0;exitDy=0;entryX=0.841;entryY=1.142;entryDx=0;entryDy=0;entryPerimeter=0;" edge="1" parent="1" source="QgKklc_-N7JBqiMBvKZP-191" target="QgKklc_-N7JBqiMBvKZP-183">
          <mxGeometry relative="1" as="geometry" />
        </mxCell>
        <mxCell id="QgKklc_-N7JBqiMBvKZP-197" style="edgeStyle=orthogonalEdgeStyle;rounded=0;orthogonalLoop=1;jettySize=auto;html=1;exitX=0;exitY=0.5;exitDx=0;exitDy=0;entryX=1;entryY=0.5;entryDx=0;entryDy=0;" edge="1" parent="1" source="QgKklc_-N7JBqiMBvKZP-198" target="QgKklc_-N7JBqiMBvKZP-181">
          <mxGeometry relative="1" as="geometry" />
        </mxCell>
        <mxCell id="QgKklc_-N7JBqiMBvKZP-198" value="" style="rounded=0;whiteSpace=wrap;html=1;fillColor=none;" vertex="1" parent="1">
          <mxGeometry x="515" y="190" width="120" height="60" as="geometry" />
        </mxCell>
        <mxCell id="QgKklc_-N7JBqiMBvKZP-199" style="edgeStyle=orthogonalEdgeStyle;rounded=0;orthogonalLoop=1;jettySize=auto;html=1;exitX=0.5;exitY=0;exitDx=0;exitDy=0;entryX=0.503;entryY=1.175;entryDx=0;entryDy=0;entryPerimeter=0;" edge="1" parent="1" source="QgKklc_-N7JBqiMBvKZP-169" target="QgKklc_-N7JBqiMBvKZP-181">
          <mxGeometry relative="1" as="geometry" />
        </mxCell>
        <mxCell id="QgKklc_-N7JBqiMBvKZP-200" value="" style="endArrow=classic;html=1;rounded=0;entryX=0.5;entryY=1;entryDx=0;entryDy=0;exitX=0.149;exitY=0;exitDx=0;exitDy=0;exitPerimeter=0;" edge="1" parent="1">
          <mxGeometry width="50" height="50" relative="1" as="geometry">
            <mxPoint x="169.25" y="220" as="sourcePoint" />
            <mxPoint x="170.25" y="180" as="targetPoint" />
          </mxGeometry>
        </mxCell>
        <mxCell id="QgKklc_-N7JBqiMBvKZP-201" value="" style="endArrow=classic;html=1;rounded=0;entryX=0.5;entryY=1;entryDx=0;entryDy=0;exitX=0.149;exitY=0;exitDx=0;exitDy=0;exitPerimeter=0;" edge="1" parent="1">
          <mxGeometry width="50" height="50" relative="1" as="geometry">
            <mxPoint x="199.75" y="220" as="sourcePoint" />
            <mxPoint x="200.75" y="180" as="targetPoint" />
          </mxGeometry>
        </mxCell>
        <mxCell id="QgKklc_-N7JBqiMBvKZP-202" value="" style="endArrow=classic;html=1;rounded=0;entryX=0.5;entryY=1;entryDx=0;entryDy=0;exitX=0.149;exitY=0;exitDx=0;exitDy=0;exitPerimeter=0;" edge="1" parent="1">
          <mxGeometry width="50" height="50" relative="1" as="geometry">
            <mxPoint x="229.75" y="220" as="sourcePoint" />
            <mxPoint x="230.75" y="180" as="targetPoint" />
          </mxGeometry>
        </mxCell>
        <mxCell id="QgKklc_-N7JBqiMBvKZP-203" value="" style="endArrow=classic;html=1;rounded=0;entryX=0.5;entryY=1;entryDx=0;entryDy=0;exitX=0.149;exitY=0;exitDx=0;exitDy=0;exitPerimeter=0;" edge="1" parent="1">
          <mxGeometry width="50" height="50" relative="1" as="geometry">
            <mxPoint x="259.75" y="220" as="sourcePoint" />
            <mxPoint x="260.75" y="180" as="targetPoint" />
          </mxGeometry>
        </mxCell>
        <mxCell id="QgKklc_-N7JBqiMBvKZP-204" value="b)" style="text;html=1;align=center;verticalAlign=middle;whiteSpace=wrap;rounded=0;" vertex="1" parent="1">
          <mxGeometry x="290" y="110" width="60" height="30" as="geometry" />
        </mxCell>
        <mxCell id="QgKklc_-N7JBqiMBvKZP-205" value="&lt;font style=&quot;&quot;&gt;g&lt;/font&gt;&lt;font style=&quot;vertical-align: sub; font-size: 6px;&quot;&gt;1&lt;/font&gt;&amp;nbsp; &amp;nbsp; &amp;nbsp; g&lt;sub&gt;&lt;font style=&quot;font-size: 6px;&quot;&gt;2&lt;/font&gt;&lt;/sub&gt;&amp;nbsp; &amp;nbsp; &amp;nbsp; ...&amp;nbsp; &amp;nbsp; &amp;nbsp; g&lt;sub style=&quot;&quot;&gt;&lt;font style=&quot;font-size: 6px;&quot;&gt;t&lt;/font&gt;&lt;/sub&gt;" style="text;html=1;align=center;verticalAlign=middle;whiteSpace=wrap;rounded=0;" vertex="1" parent="1">
          <mxGeometry x="520" y="160" width="110" height="30" as="geometry" />
        </mxCell>
      </root>
    </mxGraphModel>
  </diagram>
</mxfile>
